<?xml version="1.0" standalone="no"?>
<!DOCTYPE svg PUBLIC "-//W3C//DTD SVG 20010904//EN"
 "http://www.w3.org/TR/2001/REC-SVG-20010904/DTD/svg10.dtd">
<svg version="1.0" xmlns="http://www.w3.org/2000/svg"
 width="1920.000000pt" height="1920.000000pt" viewBox="0 0 1920.000000 1920.000000"
 preserveAspectRatio="xMidYMid meet">
<metadata>
Created by potrace 1.14, written by Peter Selinger 2001-2017
</metadata>
<g transform="translate(0.000000,1920.000000) scale(0.100000,-0.100000)"
fill="#000000" stroke="none">
<path d="M9717 19134 c-3 -6 -9 -26 -12 -45 -3 -19 -10 -59 -16 -89 -6 -30
-13 -68 -16 -85 -2 -16 -11 -61 -20 -100 -8 -38 -17 -81 -19 -95 -3 -14 -18
-95 -35 -180 -17 -85 -33 -166 -35 -180 -3 -14 -14 -72 -25 -129 -12 -57 -23
-116 -26 -130 -2 -14 -20 -105 -39 -201 -19 -96 -37 -187 -39 -202 -3 -15 -15
-74 -26 -130 -20 -101 -23 -117 -33 -168 -2 -14 -14 -72 -25 -130 -11 -58 -22
-116 -25 -130 -3 -14 -10 -50 -16 -80 -6 -30 -13 -66 -15 -80 -2 -14 -7 -36
-10 -50 -3 -14 -12 -59 -20 -100 -16 -84 -43 -225 -49 -255 -5 -22 -42 -215
-50 -255 -2 -14 -16 -83 -30 -155 -14 -71 -27 -141 -30 -155 -2 -14 -7 -32
-10 -40 -3 -8 -8 -33 -11 -55 -3 -22 -14 -83 -25 -135 -10 -52 -22 -111 -25
-130 -3 -19 -10 -53 -15 -75 -5 -22 -26 -125 -46 -230 -20 -104 -38 -199 -40
-210 -2 -11 -8 -45 -14 -75 -17 -91 -19 -103 -30 -150 -5 -25 -12 -61 -15 -80
-2 -19 -9 -53 -14 -75 -5 -22 -12 -56 -15 -75 -3 -19 -8 -45 -11 -57 -11 -50
-14 -62 -19 -96 -3 -20 -7 -42 -8 -49 -3 -13 12 -14 82 -5 92 12 155 19 203
22 29 2 52 4 52 5 0 1 47 4 105 7 211 11 544 5 725 -13 33 -3 76 -7 95 -9 19
-2 35 -4 35 -5 0 -1 100 -11 133 -13 6 0 12 -3 12 -6 0 -3 15 -6 33 -7 17 0
48 -4 67 -8 19 -4 53 -10 75 -13 22 -3 48 -9 57 -14 26 -14 30 3 17 78 -6 37
-12 79 -14 93 -3 14 -6 34 -8 45 -3 11 -8 45 -12 75 -4 30 -10 59 -13 64 -2 5
-6 28 -8 52 -1 24 -5 52 -8 61 -3 10 -7 32 -10 48 -2 17 -8 50 -12 75 -4 25
-8 52 -10 60 -3 26 -15 92 -26 155 -5 33 -12 74 -15 90 -4 32 -31 193 -38 235
-5 26 -43 252 -52 305 -2 17 -29 179 -59 360 -31 182 -57 341 -59 355 -6 35
-14 84 -21 123 -3 17 -17 100 -30 182 -32 190 -54 323 -59 355 -39 232 -207
1242 -210 1260 -1 14 -8 52 -14 85 -6 33 -13 76 -16 95 -3 19 -10 60 -15 90
-5 30 -12 73 -16 95 -7 52 -44 267 -48 280 -1 5 -5 5 -9 -1z"/>
<path d="M6234 18532 c3 -5 8 -24 11 -43 31 -180 49 -280 65 -369 11 -58 22
-121 25 -140 11 -63 25 -139 34 -192 6 -29 19 -105 30 -168 12 -63 30 -167 42
-230 11 -63 24 -137 29 -165 22 -123 60 -332 64 -350 2 -11 7 -40 11 -65 4
-25 9 -54 11 -65 2 -11 9 -47 14 -80 5 -33 12 -71 15 -85 5 -24 19 -105 29
-165 3 -16 8 -43 12 -58 3 -16 7 -38 9 -50 3 -23 31 -184 40 -227 3 -14 14
-77 25 -140 11 -63 22 -127 25 -142 3 -16 7 -38 9 -50 2 -13 7 -41 11 -63 4
-22 9 -49 11 -60 6 -29 54 -305 59 -335 3 -14 7 -38 11 -53 3 -16 7 -38 9 -50
3 -22 32 -192 41 -237 3 -14 11 -63 20 -110 8 -47 19 -105 24 -130 5 -25 12
-61 14 -80 3 -19 26 -150 51 -290 43 -239 53 -293 59 -330 3 -20 19 -103 22
-112 1 -5 2 -17 3 -28 0 -11 5 -20 10 -20 5 0 43 20 85 45 42 24 76 41 76 37
0 -4 4 -2 8 4 6 9 283 153 297 154 3 0 26 10 52 22 27 12 50 22 53 23 3 1 16
6 30 12 69 30 186 73 197 73 7 0 13 4 13 8 0 4 8 8 18 9 9 1 28 6 42 11 14 5
27 10 30 10 3 1 32 11 65 22 33 12 67 23 75 25 8 2 16 4 18 5 1 2 7 4 12 5 6
1 11 3 13 5 1 1 9 3 17 5 8 1 35 8 60 15 25 7 56 14 69 17 13 2 31 8 40 12 9
5 19 9 24 9 4 1 32 6 62 12 30 6 57 11 60 11 2 0 19 4 36 9 32 10 103 22 127
23 6 0 12 2 12 5 0 5 -53 103 -63 117 -19 24 -237 398 -237 406 0 5 -4 9 -10
9 -5 0 -10 4 -10 9 0 5 -21 45 -48 88 -26 43 -56 95 -67 116 -11 21 -28 47
-38 58 -10 10 -15 19 -12 19 6 0 3 5 -41 75 -13 22 -27 47 -31 55 -4 8 -11 20
-15 25 -10 12 -138 227 -138 232 0 2 -29 51 -65 109 -36 59 -65 108 -65 110 0
3 -12 23 -27 47 -14 23 -25 44 -24 46 2 2 -1 7 -6 10 -5 3 -31 44 -58 91 -27
47 -52 87 -55 90 -3 3 -10 14 -16 25 -45 85 -60 111 -67 120 -8 10 -137 227
-166 280 -15 27 -252 427 -359 605 -24 41 -95 161 -157 265 -61 105 -198 336
-304 515 -106 179 -227 382 -268 453 -42 70 -80 127 -85 127 -5 0 -7 -4 -4 -8z"/>
<path d="M13148 18393 c-24 -38 -72 -113 -106 -168 -35 -55 -113 -179 -174
-275 -61 -96 -117 -186 -125 -200 -8 -14 -47 -76 -86 -137 -40 -62 -135 -212
-212 -333 -77 -122 -148 -233 -157 -248 -9 -15 -23 -37 -30 -49 -17 -29 -78
-127 -143 -228 -28 -44 -152 -240 -275 -435 -122 -195 -233 -371 -245 -390
-13 -19 -62 -98 -110 -175 -48 -77 -95 -148 -103 -157 -8 -10 -11 -18 -6 -18
5 0 4 -4 -2 -8 -11 -7 -179 -270 -198 -309 -6 -13 -15 -23 -19 -23 -5 0 -5 -4
-2 -10 3 -5 2 -10 -2 -10 -5 0 -19 -20 -33 -45 -14 -25 -28 -45 -31 -45 -4 0
-9 -8 -13 -17 -3 -10 -15 -31 -26 -48 -11 -16 -23 -37 -27 -45 -3 -8 -9 -17
-13 -20 -4 -3 -35 -52 -70 -110 -35 -58 -76 -121 -92 -141 -15 -20 -28 -44
-28 -52 0 -8 -3 -17 -7 -19 -11 -5 -73 -97 -73 -108 0 -6 -4 -10 -10 -10 -5 0
-10 -5 -10 -11 0 -6 -20 -42 -45 -79 -42 -63 -57 -99 -36 -86 5 4 21 2 35 -4
25 -9 61 -18 96 -24 25 -4 104 -28 125 -37 11 -5 31 -11 45 -13 14 -2 39 -10
55 -16 17 -7 37 -14 45 -16 8 -1 53 -17 100 -34 47 -18 102 -37 123 -43 20 -6
37 -15 37 -19 0 -4 6 -8 14 -8 8 0 36 -10 63 -22 26 -12 50 -22 53 -23 18 -6
58 -24 149 -66 57 -27 107 -49 112 -49 5 0 9 -4 9 -10 0 -5 9 -10 19 -10 11 0
21 -3 23 -7 2 -5 41 -28 88 -52 47 -25 120 -66 163 -93 43 -26 81 -48 83 -48
5 0 64 -40 74 -50 7 -7 49 -30 54 -30 2 0 8 19 12 43 4 23 8 44 9 47 10 43 16
71 20 99 3 19 8 38 11 43 3 4 7 22 9 40 4 29 68 339 81 393 3 11 8 36 10 55 3
19 10 53 16 75 5 22 12 49 14 60 2 11 11 54 19 95 8 41 17 84 19 95 9 43 138
665 156 750 11 50 53 252 94 450 63 300 89 426 141 685 2 8 8 35 14 60 9 39
97 461 107 515 2 11 24 115 48 230 25 116 47 221 49 235 3 14 24 115 47 225
22 110 47 232 55 270 8 39 17 80 20 93 11 46 15 67 20 105 4 22 10 50 15 63
16 40 3 27 -42 -43z"/>
<path d="M3223 16694 c12 -20 29 -48 38 -62 68 -115 475 -782 488 -802 9 -14
53 -85 96 -157 119 -198 153 -255 245 -403 45 -74 92 -151 102 -170 11 -19 28
-46 38 -60 9 -14 20 -32 23 -40 4 -8 32 -55 62 -103 30 -48 55 -92 55 -98 0
-5 4 -9 9 -9 5 0 12 -8 15 -17 7 -19 20 -42 51 -88 32 -48 44 -68 57 -95 7
-14 15 -27 18 -30 3 -3 39 -61 80 -130 41 -69 78 -126 83 -128 4 -2 7 -7 7
-12 0 -5 54 -97 120 -205 66 -109 120 -201 120 -206 0 -5 5 -9 10 -9 6 0 10
-4 10 -9 0 -5 54 -97 120 -204 66 -108 120 -200 120 -206 0 -6 5 -11 10 -11 6
0 10 -6 10 -14 0 -8 3 -16 8 -18 4 -2 16 -19 26 -38 11 -19 36 -60 55 -90 20
-30 36 -57 36 -60 3 -13 41 -70 48 -70 4 0 7 -5 7 -10 0 -6 23 -47 50 -91 28
-44 50 -85 50 -90 0 -5 5 -9 10 -9 6 0 10 -4 10 -9 0 -6 27 -53 60 -106 33
-53 60 -100 60 -106 0 -5 5 -9 10 -9 6 0 10 -5 10 -12 0 -7 12 -29 26 -50 l26
-37 65 82 c144 183 353 405 534 567 46 41 86 77 89 80 3 4 34 30 70 58 36 29
74 61 85 70 44 40 257 193 344 247 9 6 28 20 44 32 l28 22 -82 63 c-45 35
-100 79 -123 98 -23 19 -57 46 -76 60 -18 14 -59 45 -90 70 -57 45 -78 62
-180 141 -77 60 -79 62 -99 79 -9 8 -44 35 -76 60 -33 24 -74 56 -90 70 -17
14 -48 39 -69 55 -93 72 -151 120 -154 127 -2 4 -8 8 -13 8 -6 0 -38 23 -72
51 -34 28 -69 56 -77 62 -8 7 -75 59 -149 117 -235 184 -406 319 -416 327 -5
5 -53 42 -105 83 -52 41 -97 77 -100 80 -3 3 -25 21 -50 40 -25 19 -49 38 -55
42 -5 5 -68 54 -140 110 -71 56 -135 107 -141 113 -7 5 -23 18 -37 28 -14 10
-171 133 -349 274 -177 140 -388 306 -468 369 -80 63 -156 123 -170 134 -277
218 -369 290 -374 290 -3 0 5 -16 17 -36z"/>
<path d="M16005 16432 c-94 -70 -242 -180 -329 -244 -88 -65 -171 -126 -185
-137 -14 -11 -109 -82 -211 -157 -102 -76 -279 -208 -395 -294 -115 -86 -237
-176 -270 -200 -33 -24 -64 -48 -70 -52 -22 -18 -125 -94 -145 -108 -12 -8
-45 -33 -74 -55 -29 -22 -63 -48 -77 -57 -105 -77 -189 -140 -205 -155 -7 -7
-16 -13 -19 -13 -4 0 -22 -12 -40 -27 -18 -16 -85 -66 -149 -113 -65 -47 -132
-96 -150 -110 -46 -35 -82 -62 -146 -109 -30 -22 -59 -44 -65 -48 -5 -5 -71
-54 -145 -108 -74 -54 -139 -103 -145 -107 -5 -4 -37 -28 -70 -52 -33 -25 -68
-51 -77 -59 -9 -9 -27 -21 -40 -28 -13 -6 -27 -18 -31 -25 -4 -8 -12 -14 -17
-14 -6 0 -18 -7 -27 -16 -17 -15 -94 -72 -363 -270 -41 -30 -82 -60 -90 -67
-8 -7 -31 -23 -50 -37 -19 -13 -37 -27 -40 -30 -3 -4 -28 -22 -57 -42 l-52
-34 82 -62 c45 -33 92 -69 105 -79 50 -39 198 -158 208 -168 6 -5 49 -44 94
-85 97 -87 232 -221 308 -306 30 -32 68 -75 86 -94 18 -19 50 -57 72 -85 21
-27 44 -54 50 -60 5 -5 30 -37 55 -70 24 -33 49 -65 54 -71 6 -6 33 -43 60
-82 28 -40 53 -72 57 -72 4 0 13 10 19 23 7 12 54 85 104 162 51 77 132 202
181 278 49 75 121 186 159 245 207 318 202 310 250 388 16 27 33 51 37 52 4 2
8 10 8 18 0 8 5 14 10 14 6 0 10 7 10 15 0 8 5 15 10 15 6 0 10 5 10 11 0 6
11 25 25 43 14 18 25 37 25 42 0 5 11 22 25 38 14 16 25 35 25 43 0 7 3 13 8
13 4 0 27 33 52 73 24 39 48 77 53 82 4 6 28 42 52 80 24 39 49 75 54 82 6 7
11 14 11 17 0 5 41 68 122 188 21 31 38 61 38 66 0 6 4 12 8 14 4 2 27 35 52
73 24 39 85 134 137 211 51 78 93 146 93 152 0 6 3 12 8 14 4 2 32 41 62 88
30 47 58 87 63 88 4 2 7 7 7 12 0 11 183 294 193 298 4 2 7 7 7 12 0 5 17 35
38 67 96 145 137 209 142 218 6 11 67 106 179 275 42 63 80 123 86 133 10 16
31 49 225 350 49 75 88 137 87 137 -1 -1 -79 -58 -172 -128z"/>
<path d="M9218 13955 c-2 -2 -43 -5 -93 -9 -49 -3 -101 -8 -115 -11 -14 -3
-50 -8 -80 -11 -46 -4 -119 -17 -285 -50 -31 -6 -54 -12 -140 -34 -44 -11 -91
-23 -104 -26 -13 -3 -32 -9 -43 -15 -10 -5 -18 -8 -18 -5 0 2 -32 -7 -71 -20
-39 -13 -77 -24 -85 -24 -8 0 -14 -4 -14 -10 0 -5 -8 -10 -19 -10 -18 0 -284
-106 -351 -140 -19 -10 -38 -18 -42 -19 -8 -1 -96 -47 -233 -121 -150 -81
-415 -253 -531 -345 -161 -128 -200 -159 -209 -169 -6 -6 -48 -45 -95 -86
-316 -281 -599 -624 -838 -1015 -58 -95 -212 -392 -251 -485 -13 -30 -30 -68
-37 -85 -41 -96 -63 -155 -57 -155 3 0 1 -6 -5 -12 -11 -15 -79 -232 -111
-353 -22 -86 -68 -310 -69 -335 0 -8 -5 -40 -10 -70 -13 -69 -23 -157 -27
-237 -1 -34 -5 -65 -8 -70 -6 -11 0 -533 7 -643 6 -80 8 -108 22 -220 4 -25 8
-58 9 -75 2 -16 4 -30 5 -30 1 0 3 -9 5 -20 4 -21 17 -99 21 -125 2 -8 5 -24
8 -35 2 -11 12 -53 21 -94 8 -41 22 -98 31 -126 8 -29 17 -63 19 -76 3 -13 9
-35 14 -49 5 -14 24 -72 42 -130 18 -58 35 -107 38 -110 3 -3 7 -12 9 -20 8
-41 155 -391 176 -419 5 -7 11 -20 13 -29 1 -9 7 -18 12 -20 6 -2 11 -10 11
-17 0 -8 14 -37 30 -65 17 -28 30 -53 30 -56 0 -9 153 -259 214 -349 516 -764
1236 -1335 2051 -1625 86 -30 264 -86 305 -94 14 -3 81 -19 150 -36 69 -16
150 -34 180 -40 129 -24 239 -41 290 -46 30 -3 66 -7 80 -10 108 -18 596 -25
760 -10 145 13 253 25 295 32 11 2 38 6 60 10 34 4 257 48 305 59 27 6 145 36
160 40 8 2 47 13 85 24 39 11 93 27 120 37 28 9 57 19 65 22 8 3 17 6 20 7 3
1 12 4 20 8 8 3 59 22 112 41 54 20 106 40 115 45 10 5 29 13 43 18 332 131
812 429 1115 694 115 101 337 328 430 440 55 67 105 126 110 133 18 20 85 118
163 236 116 178 138 212 162 255 12 22 31 56 42 75 53 90 198 393 198 414 0 6
4 16 9 22 9 8 107 272 116 311 3 10 18 63 35 118 16 55 32 109 34 120 2 11 11
49 21 84 9 35 14 66 11 69 -3 3 -2 10 3 16 5 6 12 27 15 46 3 19 8 46 10 60 3
14 7 36 10 50 28 159 32 190 41 280 3 30 7 71 10 90 16 132 21 417 11 625 -6
123 -9 167 -20 260 -15 137 -18 160 -22 167 -3 4 -6 27 -9 50 -4 50 -27 167
-56 288 -12 47 -22 93 -25 103 -11 57 -95 317 -139 433 -80 206 -212 477 -300
614 -12 19 -48 76 -80 125 -48 75 -247 349 -265 365 -3 3 -25 30 -50 60 -179
219 -480 505 -727 691 -100 75 -303 212 -378 255 -124 72 -247 138 -325 176
-132 63 -214 99 -347 152 -105 42 -200 73 -353 116 -58 17 -120 35 -137 41
-18 5 -37 7 -43 4 -5 -3 -10 -1 -10 6 0 7 -3 10 -6 7 -3 -3 -22 -1 -42 4 -20
6 -46 12 -57 13 -11 2 -31 6 -45 10 -14 3 -38 7 -55 9 -16 2 -41 6 -55 10 -14
3 -44 8 -67 10 -22 2 -45 6 -50 9 -4 3 -44 8 -88 12 -44 4 -98 9 -120 12 -40
4 -682 12 -687 8z"/>
<path d="M1041 13933 c0 -4 34 -33 76 -63 42 -30 81 -60 87 -65 12 -12 156
-122 351 -270 72 -54 132 -101 135 -105 3 -3 21 -17 40 -30 19 -13 37 -27 40
-30 3 -3 21 -17 40 -30 19 -13 37 -27 40 -30 3 -3 25 -21 50 -40 25 -19 50
-39 56 -45 6 -5 27 -21 47 -35 20 -14 37 -28 37 -32 0 -5 5 -8 10 -8 6 0 34
-19 63 -42 57 -46 91 -72 172 -134 48 -36 545 -418 670 -514 200 -155 298
-230 450 -345 94 -71 172 -131 175 -134 3 -4 23 -19 45 -36 22 -16 45 -33 50
-37 6 -5 28 -22 50 -39 22 -16 47 -35 55 -42 8 -7 44 -35 80 -62 79 -60 68
-51 166 -127 45 -35 92 -70 104 -78 12 -8 29 -22 38 -30 8 -8 36 -30 63 -50
116 -86 254 -194 257 -202 2 -4 10 -8 18 -8 8 0 17 -6 20 -14 3 -7 21 -22 40
-32 19 -10 34 -22 34 -26 0 -4 11 -13 24 -20 23 -13 81 -58 117 -90 10 -10 24
-18 29 -18 6 0 10 -3 10 -7 0 -5 21 -21 45 -38 25 -16 45 -33 45 -37 0 -5 4
-8 9 -8 7 0 38 83 46 127 2 10 4 19 5 21 2 1 4 7 5 12 1 6 4 12 5 15 1 3 3 8
5 13 1 4 5 15 9 24 4 9 8 22 10 30 1 7 5 19 9 26 5 6 5 12 1 12 -3 0 -2 6 4
13 6 7 13 24 15 37 4 23 10 39 38 105 4 11 20 49 34 85 14 36 30 73 35 82 6
10 10 25 10 33 0 8 4 15 10 15 5 0 9 4 7 8 -3 11 55 135 68 144 6 4 7 8 3 8
-12 0 181 363 202 380 4 3 9 13 13 23 7 18 126 207 137 217 14 13 83 120 79
124 -2 2 -44 15 -94 30 -49 15 -106 32 -125 38 -19 6 -46 15 -60 19 -14 5
-196 61 -405 124 -209 64 -429 131 -490 150 -132 41 -859 264 -1000 306 -55
17 -158 49 -230 71 -342 105 -555 171 -565 173 -25 6 -104 31 -195 60 -60 20
-117 37 -125 38 -8 2 -37 10 -65 19 -27 9 -102 32 -165 51 -63 20 -169 52
-235 72 -66 21 -124 38 -130 40 -5 1 -17 5 -25 8 -20 7 -222 69 -235 71 -5 2
-44 13 -85 26 -41 13 -77 24 -80 25 -17 3 -189 58 -209 66 -13 5 -26 7 -29 5
-2 -3 -13 -1 -23 5 -11 5 -19 6 -18 2z"/>
<path d="M18165 13677 c-33 -10 -67 -21 -75 -24 -8 -4 -28 -8 -45 -10 -16 -3
-37 -9 -46 -13 -9 -5 -31 -12 -50 -15 -18 -3 -54 -12 -79 -20 -37 -12 -383
-107 -920 -255 -58 -15 -170 -47 -250 -69 -176 -48 -232 -64 -245 -67 -5 -1
-66 -18 -135 -37 -69 -20 -161 -45 -205 -57 -44 -12 -150 -41 -235 -65 -85
-24 -216 -60 -290 -80 -74 -21 -196 -54 -270 -75 -178 -49 -281 -78 -545 -150
-121 -33 -234 -64 -252 -70 -18 -6 -42 -13 -53 -15 -11 -2 -85 -22 -163 -44
-242 -68 -401 -112 -417 -116 -8 -2 -80 -21 -160 -43 -80 -22 -157 -43 -172
-46 -16 -4 -28 -11 -28 -17 0 -5 17 -36 38 -67 142 -210 321 -553 422 -807 55
-137 104 -273 116 -317 1 -5 3 -10 4 -13 1 -3 3 -8 5 -12 1 -5 4 -15 8 -23 7
-19 21 -72 22 -85 0 -5 6 -23 12 -40 11 -27 40 -132 49 -178 2 -10 6 -28 10
-40 4 -12 8 -31 10 -42 2 -11 6 -31 9 -45 4 -14 8 -35 10 -47 2 -11 6 -29 9
-40 5 -17 11 -50 22 -133 3 -19 7 -46 9 -60 2 -14 4 -25 5 -25 2 0 10 -57 13
-95 1 -14 5 -29 7 -35 3 -5 5 -38 5 -72 0 -35 3 -63 6 -63 3 0 6 -15 6 -32 1
-18 5 -94 9 -168 10 -199 5 -521 -11 -675 -3 -22 -7 -62 -9 -90 -7 -70 -22
-179 -32 -235 -2 -14 -7 -41 -10 -60 -13 -84 -15 -92 -49 -245 -29 -127 -27
-122 -55 -223 -12 -42 -23 -81 -24 -87 -12 -49 -30 -102 -38 -112 -6 -7 -8
-13 -5 -13 3 0 -5 -28 -18 -62 -12 -35 -25 -72 -29 -83 -23 -64 -55 -145 -87
-220 -12 -28 -38 -94 -40 -103 -8 -27 -174 -348 -183 -354 -6 -4 -7 -8 -2 -8
5 0 3 -8 -6 -17 -8 -10 -20 -29 -26 -43 -7 -14 -27 -48 -45 -77 -18 -28 -45
-74 -62 -102 -16 -28 -33 -51 -37 -51 -5 0 -8 -5 -8 -10 0 -9 -43 -74 -129
-195 -171 -241 -480 -583 -691 -765 -41 -36 -77 -67 -80 -70 -20 -20 -140
-118 -210 -171 -47 -35 -87 -66 -90 -69 -7 -8 -112 -79 -171 -116 -27 -17 -57
-38 -67 -47 -10 -9 -22 -17 -26 -17 -4 0 -31 -15 -59 -33 -124 -81 -478 -267
-506 -267 -6 0 -11 -5 -11 -11 0 -5 -4 -8 -9 -4 -5 3 -12 1 -16 -5 -3 -5 -15
-10 -26 -10 -10 0 -19 -4 -19 -10 0 -5 -5 -10 -12 -10 -10 0 -150 -53 -213
-81 -39 -18 -302 -104 -345 -114 -8 -2 -15 -4 -15 -5 0 -1 -7 -3 -15 -5 -8 -2
-42 -12 -75 -21 -33 -9 -67 -18 -75 -19 -8 -1 -24 -4 -35 -8 -11 -3 -31 -9
-45 -11 -25 -6 -93 -20 -140 -31 -14 -3 -41 -8 -60 -11 -36 -5 -67 -11 -109
-20 -13 -3 -42 -7 -65 -9 -22 -2 -50 -6 -61 -8 -25 -6 -128 -19 -175 -22 -19
-2 -75 -6 -125 -11 -92 -8 -595 -8 -695 0 -143 11 -257 23 -310 31 -19 3 -51
8 -70 11 -80 11 -295 52 -370 70 -8 2 -35 8 -60 15 -25 6 -49 12 -55 13 -5 2
-30 8 -55 15 -25 7 -47 13 -50 13 -3 1 -29 9 -57 19 -29 10 -53 16 -53 14 0
-3 -24 5 -52 16 -29 12 -64 23 -77 26 -14 2 -29 7 -35 11 -6 3 -15 7 -21 8
-22 4 -181 67 -189 75 -6 5 -16 9 -23 9 -7 0 -36 11 -65 24 -29 13 -75 34
-103 46 -58 25 -283 138 -335 167 -19 11 -62 35 -95 54 -33 18 -62 37 -63 41
-2 4 -8 8 -13 8 -6 0 -44 23 -86 50 -42 28 -80 50 -84 50 -5 0 -9 5 -9 10 0 6
-6 10 -14 10 -8 0 -16 3 -18 8 -1 4 -25 23 -53 42 -266 183 -537 420 -786 686
-47 51 -80 88 -202 234 -12 14 -52 66 -89 115 -37 50 -73 96 -78 102 -14 17
-201 301 -222 338 -10 17 -25 46 -35 65 -9 19 -19 37 -22 40 -11 10 -198 369
-201 385 -1 8 -30 77 -49 120 -16 34 -31 74 -36 95 -1 3 -12 27 -24 54 -12 27
-23 56 -25 65 -4 21 -15 52 -27 73 -5 10 -9 26 -9 36 0 10 -5 23 -12 30 -7 7
-8 12 -4 12 5 0 3 7 -4 15 -7 8 -9 15 -6 15 4 0 2 9 -4 21 -6 11 -13 28 -15
37 -1 9 -11 43 -20 76 -9 32 -18 64 -20 70 -1 6 -5 18 -8 26 -3 8 -8 29 -11
45 -7 35 -14 60 -16 60 -1 0 -3 12 -5 26 -2 14 -8 44 -15 68 -6 23 -13 56 -15
74 -3 18 -7 42 -10 55 -3 12 -7 32 -10 45 -3 12 -7 36 -9 52 -3 17 -7 44 -10
60 -7 43 -18 136 -19 162 -1 12 -3 21 -6 19 -4 -1 -22 -10 -41 -19 -19 -8 -84
-39 -145 -67 -60 -29 -144 -68 -185 -87 -41 -20 -115 -55 -165 -78 -49 -24
-130 -62 -180 -85 -49 -23 -135 -64 -190 -90 -55 -26 -138 -66 -185 -88 -47
-22 -147 -70 -224 -106 -76 -36 -144 -66 -151 -66 -8 0 -15 -3 -17 -7 -3 -8
-33 -23 -178 -91 -47 -22 -129 -60 -183 -86 -54 -25 -102 -46 -108 -46 -5 0
-9 -4 -9 -10 0 -5 -9 -10 -19 -10 -11 0 -23 -5 -26 -10 -4 -6 -11 -8 -16 -5
-5 4 -9 3 -9 -2 0 -4 -15 -14 -32 -22 -18 -8 -85 -39 -148 -69 -141 -67 -243
-115 -250 -117 -3 -1 -45 -21 -95 -45 -49 -24 -92 -44 -95 -45 -7 -2 -123 -57
-313 -149 -85 -40 -164 -77 -176 -81 -11 -3 -21 -10 -21 -15 0 -5 -7 -7 -15
-4 -8 4 -15 1 -15 -5 0 -6 -9 -11 -20 -11 -11 0 -20 -4 -20 -10 0 -5 -6 -10
-14 -10 -7 0 -53 -20 -102 -44 -152 -74 -201 -96 -212 -96 -7 0 -12 -4 -12
-10 0 -5 -5 -10 -10 -10 -6 0 -50 -19 -98 -41 -252 -119 -290 -137 -319 -150
-18 -8 -33 -17 -33 -20 0 -3 -6 -6 -12 -6 -7 0 -76 -31 -153 -68 -77 -37 -168
-80 -203 -96 -34 -16 -62 -31 -62 -34 0 -3 16 -2 35 1 19 3 65 7 102 9 38 2
68 5 68 5 0 1 29 4 150 14 39 3 97 8 130 11 33 4 85 8 115 10 94 7 193 15 245
20 28 2 79 7 115 10 36 3 92 8 125 11 33 3 80 7 105 9 43 3 118 9 240 20 30 2
87 7 125 10 39 3 86 7 105 10 19 2 76 7 125 10 50 4 108 8 130 11 22 2 72 6
110 9 39 3 86 7 105 9 19 2 71 7 115 10 44 4 107 9 140 12 33 3 83 7 110 9 28
2 50 4 50 5 0 0 29 3 65 6 126 9 176 13 230 19 30 3 84 7 120 10 36 2 94 6
130 10 96 8 167 14 240 20 62 5 153 13 230 20 127 12 205 18 365 30 33 2 83 6
110 9 28 3 79 8 115 11 36 3 90 8 120 11 30 2 82 7 115 9 33 2 87 6 120 9 91
9 184 16 245 21 30 2 88 7 128 11 l74 6 -34 -34 c-18 -20 -89 -95 -158 -167
-69 -73 -150 -159 -180 -190 -30 -32 -118 -125 -195 -206 -77 -81 -160 -169
-185 -195 -25 -26 -99 -104 -165 -174 -66 -70 -147 -156 -180 -190 -53 -56
-294 -309 -400 -421 -157 -166 -329 -347 -375 -396 -100 -104 -334 -351 -375
-394 -159 -168 -318 -336 -360 -380 -27 -28 -113 -118 -190 -199 -77 -82 -158
-167 -180 -190 -22 -24 -101 -107 -175 -185 -74 -79 -157 -167 -185 -195 -95
-98 -94 -98 85 -10 95 47 177 86 184 87 6 1 13 5 16 8 3 4 50 27 105 53 55 25
107 50 115 55 8 4 24 13 35 19 11 6 97 48 190 93 94 45 232 113 308 150 77 38
145 69 152 69 7 0 15 5 17 11 2 5 10 11 18 12 8 1 37 15 64 30 27 15 50 27 53
27 9 0 118 54 123 60 3 4 17 10 32 13 15 4 33 14 42 22 8 8 18 15 22 15 5 0
51 21 104 47 52 25 185 90 295 143 110 53 263 128 340 166 77 38 143 68 148
66 4 -1 7 3 7 8 0 6 4 10 9 10 5 0 117 53 248 117 131 64 240 117 243 118 3 0
16 7 30 15 14 8 27 15 30 15 3 1 94 45 204 98 109 53 203 97 207 97 5 0 9 5 9
10 0 6 5 10 12 10 6 0 93 40 192 89 688 338 751 368 743 353 -12 -22 -50 -108
-52 -117 -1 -5 -7 -21 -12 -35 -6 -14 -27 -63 -46 -110 -19 -47 -67 -164 -106
-260 -40 -96 -79 -191 -87 -210 -27 -61 -31 -71 -109 -265 -43 -104 -83 -203
-90 -220 -7 -16 -34 -82 -60 -145 -26 -63 -53 -128 -60 -145 -8 -16 -38 -91
-68 -165 -91 -224 -128 -314 -137 -335 -5 -11 -32 -76 -60 -145 -28 -69 -56
-136 -62 -150 -7 -14 -13 -33 -14 -42 0 -10 -6 -23 -12 -30 -5 -7 -22 -44 -37
-83 -14 -38 -31 -78 -36 -88 -15 -28 -53 -131 -51 -139 1 -3 -5 -12 -13 -18
-8 -7 -15 -23 -15 -36 0 -13 -4 -24 -10 -24 -5 0 -10 -6 -10 -14 0 -8 -21 -63
-46 -123 -25 -59 -47 -112 -48 -118 -1 -5 -5 -15 -8 -21 -4 -5 -37 -84 -73
-175 -36 -90 -73 -180 -81 -199 -25 -58 -30 -69 -104 -250 -74 -182 -78 -191
-104 -252 -9 -20 -16 -39 -16 -42 0 -3 -8 -25 -19 -49 -29 -67 -43 -102 -40
-102 1 0 -4 -11 -11 -25 -8 -14 -15 -27 -15 -30 -1 -3 -7 -18 -13 -33 -7 -16
-12 -33 -12 -38 0 -5 -4 -9 -10 -9 -5 0 -7 -7 -4 -15 4 -8 1 -15 -5 -15 -6 0
-11 -8 -11 -18 0 -11 -6 -32 -14 -48 -41 -86 -96 -223 -96 -238 1 -6 10 0 21
14 19 22 136 151 230 251 28 30 103 110 259 279 14 15 66 72 116 126 51 54
107 115 125 135 93 98 246 264 262 283 10 11 46 50 80 86 34 36 107 115 162
175 55 59 111 120 125 134 14 14 75 80 135 146 61 66 119 129 130 140 11 12
67 73 125 135 58 63 116 126 130 140 14 15 68 73 120 130 52 57 106 115 120
130 14 14 68 73 120 129 52 57 115 125 140 151 25 27 88 95 140 151 52 56 106
114 120 129 14 15 72 78 130 140 199 216 273 296 421 454 36 39 85 92 110 119
24 26 46 47 49 47 3 0 5 -26 3 -58 -3 -60 -12 -503 -17 -853 -2 -114 -6 -211
-10 -217 -3 -6 -2 -13 4 -17 6 -4 8 -11 4 -16 -3 -6 -8 -119 -10 -252 -2 -133
-6 -343 -9 -467 -2 -124 -7 -353 -10 -510 -3 -157 -7 -378 -8 -492 -1 -115 -6
-208 -10 -208 -4 0 -3 -8 2 -19 6 -10 8 -21 5 -24 -3 -3 -8 -117 -10 -254 -2
-136 -6 -356 -9 -488 -3 -132 -7 -368 -10 -525 -3 -157 -7 -348 -8 -424 l-3
-140 22 50 c12 27 20 52 17 57 -2 4 1 7 6 7 6 0 10 3 9 8 -1 4 6 25 16 47 9
22 24 61 33 88 8 26 19 50 24 53 5 3 9 12 9 20 0 8 7 31 16 52 10 20 18 42 19
47 2 6 8 24 15 40 6 17 11 31 11 33 -1 1 8 19 19 39 11 21 20 41 20 45 0 4 5
19 12 35 6 15 12 30 13 33 0 3 6 14 12 25 6 11 12 25 13 30 4 16 17 51 63 165
23 58 42 107 42 110 1 3 9 23 19 45 10 22 19 45 20 50 2 6 8 21 13 35 20 48
81 205 94 243 7 20 17 37 23 37 5 0 7 3 3 6 -3 4 0 19 9 35 8 16 15 32 16 36
0 5 5 19 11 33 5 14 13 34 17 45 16 43 43 111 51 130 36 88 69 172 68 180 0 3
7 18 15 33 9 15 22 45 30 67 22 64 41 110 46 115 3 3 6 12 8 20 3 12 89 233
147 375 4 11 9 25 11 30 1 6 14 36 28 68 14 31 26 58 25 60 0 1 4 13 9 27 30
77 126 319 135 340 6 14 11 27 12 30 1 3 7 19 14 35 7 17 22 55 33 85 11 30
28 73 38 95 9 22 32 78 50 125 32 85 53 137 70 175 5 11 34 85 65 165 30 80
60 154 65 165 5 11 48 119 96 240 47 121 92 234 99 250 7 17 32 81 56 142 24
62 46 113 49 113 3 0 20 -42 38 -93 31 -85 57 -157 205 -562 31 -82 85 -233
122 -335 36 -102 70 -194 75 -205 5 -11 54 -146 110 -300 55 -154 105 -289
109 -300 5 -11 23 -60 41 -110 17 -49 40 -112 50 -140 10 -27 28 -75 39 -105
166 -453 203 -557 206 -565 1 -5 6 -21 12 -35 5 -14 29 -79 52 -145 24 -66 45
-127 49 -135 3 -8 6 -17 7 -20 5 -13 18 -47 25 -65 11 -27 51 -137 54 -150 2
-5 7 -21 13 -35 22 -53 55 -146 58 -160 2 -8 4 -16 5 -17 2 -2 3 -6 5 -10 1
-5 5 -15 8 -23 12 -29 128 -345 132 -360 2 -8 4 -16 5 -17 2 -2 4 -7 5 -13 1
-5 4 -13 5 -17 1 -5 2 -11 1 -15 0 -5 4 -8 9 -8 5 0 9 -3 9 -7 -1 -5 0 -10 1
-13 1 -3 3 -12 5 -21 1 -9 10 -32 18 -50 12 -27 36 -94 42 -119 1 -3 7 -18 14
-35 7 -16 19 -50 27 -75 8 -25 19 -54 24 -65 4 -11 17 -45 28 -75 11 -30 23
-64 28 -75 4 -11 20 -56 35 -100 15 -44 29 -78 30 -75 4 10 8 348 12 916 2
319 7 586 11 592 3 6 2 13 -3 16 -8 6 -6 53 4 84 2 6 0 12 -5 12 -6 0 -6 9 0
24 5 13 6 27 3 30 -8 8 -10 75 -2 70 6 -3 4 50 -2 66 -1 3 0 10 1 15 1 6 4
237 6 515 2 278 6 820 9 1205 3 385 7 859 8 1052 1 194 4 353 7 353 3 0 74
-78 157 -172 83 -95 161 -183 172 -195 12 -12 21 -27 21 -33 0 -5 4 -10 8 -10
4 0 59 -59 122 -132 63 -72 120 -136 125 -142 6 -6 105 -119 220 -251 115
-132 222 -253 236 -270 14 -16 48 -55 75 -85 27 -31 76 -87 109 -125 33 -38
67 -76 75 -85 8 -8 40 -45 70 -80 30 -36 57 -67 60 -70 5 -5 159 -180 287
-326 28 -32 63 -72 78 -89 14 -16 45 -52 68 -79 23 -27 47 -54 53 -60 14 -15
157 -178 219 -250 28 -32 61 -70 75 -85 14 -14 68 -76 120 -136 52 -61 99
-115 105 -121 17 -19 121 -137 151 -173 16 -18 42 -48 57 -65 16 -17 60 -68
99 -113 39 -46 74 -83 79 -83 5 0 9 -6 9 -14 0 -8 4 -16 8 -18 5 -2 46 -46 91
-98 46 -52 109 -124 140 -160 32 -36 79 -90 106 -120 75 -87 75 -87 70 -64 -2
10 -15 47 -28 81 -14 34 -22 64 -19 67 3 3 0 6 -6 6 -7 0 -12 8 -12 18 0 10
-4 22 -8 28 -4 5 -16 34 -26 64 -10 30 -24 69 -31 85 -7 17 -22 55 -33 85 -34
94 -83 224 -93 245 -4 11 -22 58 -39 105 -17 47 -35 94 -40 105 -4 11 -13 36
-20 55 -7 19 -19 50 -27 68 -8 19 -25 64 -38 100 -30 86 -101 273 -127 337
-11 27 -21 54 -23 60 -1 5 -6 21 -12 35 -6 14 -29 77 -53 140 -24 63 -48 126
-53 140 -6 14 -11 27 -12 30 -1 3 -7 18 -13 33 -7 15 -15 39 -18 53 -3 13 -10
27 -15 30 -5 3 -9 13 -9 22 0 9 -12 46 -26 82 -36 90 -38 95 -72 185 -17 44
-41 109 -55 145 -14 36 -41 110 -61 165 -21 55 -41 109 -45 120 -24 58 -37 91
-92 239 -33 88 -73 195 -89 236 -27 71 -72 189 -277 730 -47 124 -117 308
-155 410 -77 202 -118 313 -118 318 0 1 51 -24 113 -56 61 -33 166 -88 232
-122 66 -34 156 -82 200 -105 87 -46 339 -177 450 -234 39 -20 72 -38 75 -41
3 -3 48 -27 100 -53 52 -26 149 -76 215 -110 66 -35 183 -96 260 -136 77 -41
146 -78 153 -83 6 -6 12 -7 12 -2 0 5 4 4 8 -1 4 -6 57 -36 117 -67 200 -102
220 -113 227 -123 4 -5 8 -6 8 -1 0 5 6 4 13 -1 12 -10 219 -120 292 -156 22
-11 43 -25 47 -31 4 -6 8 -8 8 -4 0 4 33 -10 73 -31 39 -22 122 -65 182 -96
61 -32 151 -79 200 -105 50 -26 143 -75 208 -109 189 -99 335 -175 442 -231
97 -51 204 -107 430 -225 61 -32 162 -85 225 -118 113 -59 119 -58 55 9 -16
18 -53 58 -81 91 -29 32 -67 75 -85 96 -19 21 -50 56 -69 76 -19 21 -64 70
-100 111 -36 40 -76 85 -90 100 -30 34 -145 161 -180 201 -33 37 -152 169
-165 183 -6 6 -48 54 -95 106 -46 52 -100 113 -121 135 -20 22 -62 69 -94 105
-33 36 -69 76 -82 90 -12 14 -34 39 -49 55 -15 17 -43 48 -63 70 -38 43 -183
203 -241 269 -19 21 -44 48 -55 60 -11 12 -49 55 -85 96 -36 41 -78 88 -95
105 -16 17 -57 62 -90 100 -33 38 -76 86 -95 107 -19 20 -57 62 -83 92 -26 30
-58 65 -70 78 -39 43 -120 133 -187 208 -36 40 -76 85 -90 100 -14 15 -50 56
-80 90 -30 34 -66 74 -80 90 -14 15 -54 60 -90 100 -36 40 -70 78 -75 84 -13
13 -191 212 -220 245 -11 12 -33 38 -50 55 -35 38 -148 165 -187 210 -14 17
-45 50 -67 74 -23 24 -41 45 -41 48 0 3 24 2 53 -1 59 -7 95 -10 187 -20 36
-3 76 -8 90 -11 14 -2 50 -6 80 -9 30 -4 73 -8 95 -11 22 -2 63 -6 90 -9 28
-3 64 -7 80 -10 17 -2 57 -6 90 -9 33 -3 74 -8 90 -11 17 -2 57 -7 90 -10 33
-4 76 -9 95 -11 69 -8 106 -13 165 -19 33 -3 98 -10 145 -16 47 -5 104 -12
128 -14 23 -3 61 -7 85 -10 23 -2 69 -7 102 -10 33 -3 71 -8 85 -11 14 -2 50
-6 80 -10 54 -5 94 -10 168 -19 58 -7 122 -14 187 -20 33 -3 76 -8 95 -10 19
-3 55 -7 80 -10 25 -2 61 -6 80 -9 19 -3 62 -8 95 -11 33 -3 94 -10 135 -15
148 -19 166 -21 215 -24 28 -2 68 -7 90 -10 22 -3 63 -8 90 -11 85 -9 139 -15
175 -20 19 -2 80 -9 135 -15 55 -6 118 -13 140 -15 22 -3 63 -8 90 -11 28 -2
64 -7 80 -9 17 -2 62 -7 100 -10 39 -4 81 -8 95 -11 47 -8 133 -17 260 -29 36
-3 76 -8 90 -11 14 -3 48 -7 77 -9 29 -2 70 -6 93 -9 80 -11 155 -20 275 -31
22 -2 56 -6 75 -9 19 -3 60 -8 90 -11 30 -4 64 -9 75 -12 64 -17 13 9 -835
439 -124 63 -232 118 -240 123 -8 5 -20 10 -27 11 -7 1 -26 12 -43 24 -16 12
-30 19 -30 16 0 -3 -23 8 -50 24 -28 17 -57 30 -63 30 -7 0 -17 4 -23 9 -12
12 -138 76 -143 72 -2 -1 -7 1 -10 6 -10 14 -91 55 -91 46 0 -4 -4 -3 -8 2 -4
6 -70 42 -147 80 -77 39 -142 72 -145 75 -3 3 -144 75 -315 160 -170 85 -318
161 -329 170 -10 8 -20 14 -22 12 -2 -1 -36 14 -74 33 -38 19 -73 35 -76 34
-4 0 -10 3 -13 8 -3 4 -118 65 -256 134 -616 310 -880 445 -886 452 -3 5 -12
9 -20 11 -8 1 -77 34 -154 73 -77 40 -200 102 -273 139 -73 37 -130 69 -128
71 3 3 38 14 78 25 40 10 80 21 88 23 8 2 83 22 165 44 83 22 150 41 150 41 0
1 14 4 30 6 17 3 50 11 75 19 43 13 194 53 233 60 9 2 21 6 25 9 5 3 19 7 33
10 13 3 60 14 104 26 311 82 578 152 596 155 12 3 36 9 53 14 17 6 137 38 266
71 129 34 260 68 290 76 30 9 123 33 205 54 83 22 236 62 340 90 105 28 240
63 300 79 61 16 189 50 285 75 96 25 252 66 345 91 94 25 179 47 190 49 11 2
31 9 45 14 14 5 30 10 35 11 23 4 72 16 305 78 135 35 252 66 260 68 8 2 60
15 115 30 55 15 117 30 138 35 59 12 54 17 -25 24 -128 12 -152 15 -213 22
-82 9 -107 11 -205 19 -47 4 -87 8 -90 10 -3 2 -41 6 -85 9 -44 4 -91 9 -105
11 -14 2 -54 7 -90 10 -36 3 -87 7 -115 10 -131 14 -154 16 -210 20 -32 3 -71
7 -85 10 -14 2 -59 7 -100 10 -112 9 -152 14 -180 19 -14 2 -63 7 -110 11 -47
4 -99 8 -117 11 -18 2 -56 6 -85 9 -140 13 -256 25 -293 31 -16 2 -61 6 -100
9 -38 2 -81 6 -95 9 -14 2 -59 7 -100 11 -41 3 -91 7 -110 9 -19 3 -64 7 -100
11 -36 4 -81 9 -100 11 -19 2 -64 6 -100 8 -36 3 -65 6 -65 6 0 2 -58 9 -119
14 -34 3 -82 8 -108 11 -91 10 -134 14 -213 20 -44 4 -91 9 -105 11 -27 5 -73
10 -183 19 -38 3 -83 7 -100 10 -18 2 -59 7 -92 10 -33 3 -78 7 -100 10 -22 2
-67 7 -100 10 -33 3 -82 8 -110 11 -27 2 -75 7 -105 9 -30 2 -66 6 -80 9 -14
2 -61 8 -105 12 -142 12 -232 21 -300 29 -27 3 -77 8 -110 11 -33 3 -66 6 -72
6 -21 2 -15 13 18 32 17 10 59 39 93 65 34 25 73 54 86 64 14 10 97 69 185
133 88 63 171 124 185 134 14 10 57 41 95 69 84 60 232 168 324 234 92 67 96
70 186 134 44 32 86 63 93 70 7 7 16 13 20 13 4 0 23 14 42 30 19 16 38 30 42
30 4 0 13 6 20 13 7 7 27 21 43 31 17 10 37 25 45 33 15 14 642 469 690 501
14 9 131 94 260 188 129 94 368 266 530 384 162 117 329 239 371 269 42 31
111 81 154 111 42 30 83 61 90 68 8 6 18 12 24 12 6 0 11 5 11 10 0 6 6 10 14
10 8 0 16 4 18 8 2 5 32 30 68 55 36 26 70 50 75 55 6 4 48 35 95 69 47 34 94
68 105 77 l20 15 -20 -2 c-11 -1 -47 -10 -80 -20z"/>
<path d="M4806 10903 c-1 -1 -42 -5 -91 -8 -50 -3 -108 -8 -130 -10 -22 -2
-83 -7 -135 -10 -52 -3 -120 -7 -150 -9 -30 -1 -98 -6 -150 -11 -52 -4 -117
-9 -145 -10 -27 -2 -50 -3 -50 -4 0 -1 -34 -4 -75 -6 -41 -2 -109 -7 -150 -10
-145 -11 -206 -15 -270 -20 -36 -2 -105 -7 -155 -11 -49 -4 -111 -8 -137 -8
-27 -1 -48 -3 -48 -6 0 -3 -28 -6 -63 -6 -34 -1 -96 -5 -137 -8 -41 -4 -111
-8 -155 -11 -44 -2 -107 -7 -140 -10 -55 -5 -131 -10 -275 -20 -67 -5 -181
-13 -275 -20 -157 -12 -213 -16 -280 -20 -38 -2 -70 -4 -70 -5 0 0 -27 -3 -60
-5 -63 -4 -173 -11 -290 -20 -38 -3 -99 -8 -135 -10 -36 -3 -90 -7 -120 -10
-30 -2 -95 -7 -145 -10 -49 -3 -116 -7 -147 -10 -32 -3 -91 -7 -130 -10 -134
-9 -222 -15 -283 -19 -33 -3 -98 -8 -145 -11 -47 -3 -107 -8 -135 -11 -27 -3
-68 -5 -90 -5 -37 0 -38 0 -15 -10 14 -6 61 -21 105 -34 44 -13 127 -37 185
-54 58 -17 114 -33 125 -36 19 -5 42 -11 255 -75 202 -61 245 -74 255 -76 6
-1 51 -14 100 -29 50 -14 97 -28 105 -30 8 -2 17 -4 20 -5 3 -1 10 -3 15 -4 6
-1 17 -5 25 -8 8 -4 103 -32 210 -63 319 -92 535 -155 735 -215 77 -23 154
-45 170 -50 38 -9 423 -123 530 -155 70 -21 286 -85 720 -211 66 -20 174 -51
240 -71 66 -19 197 -57 290 -85 94 -27 247 -72 340 -100 94 -27 177 -51 185
-53 8 -2 36 -11 61 -19 l46 -14 -2 42 c-1 23 -3 46 -6 51 -3 6 -5 36 -4 67 0
32 -2 58 -5 58 -3 0 -5 39 -5 86 0 47 -3 88 -7 90 -3 2 -3 18 2 34 5 16 5 32
1 34 -7 5 -5 155 3 163 3 3 1 16 -4 29 -6 14 -6 26 0 29 7 4 6 13 0 26 -6 10
-7 19 -3 19 4 0 9 30 10 68 1 37 4 96 7 132 3 36 8 90 10 120 3 30 8 71 11 90
3 19 7 54 9 77 3 23 9 66 15 95 6 29 12 67 15 83 3 17 7 41 10 55 6 28 13 62
21 103 16 83 21 106 25 117 1 3 3 10 5 15 1 6 3 12 4 15 1 3 4 15 7 26 3 18
-1 21 -27 20 -17 0 -31 -2 -33 -3z"/>
</g>
</svg>
